<svg xmlns="http://www.w3.org/2000/svg" viewBox="0 0 1140 180"><defs><style>.cls-1{fill:#f8f8f6;}.cls-2{fill:#f5b8b8;stroke:#f5b8b8;opacity:0.67;}.cls-2,.cls-3,.cls-4,.cls-5,.cls-6{stroke-miterlimit:10;}.cls-3{fill:#0988a8;stroke:#0988a8;opacity:0.6;}.cls-3,.cls-4{stroke-width:0.5px;}.cls-4{fill:#8cc63f;stroke:#8cc63f;opacity:0.7;}.cls-5{fill:#64e2dc;stroke:#64e2dc;}.cls-5,.cls-6{stroke-width:0.75px;}.cls-6{fill:#73f9a9;stroke:#73f9a9;}.cls-7{fill:#3a3a3a;}</style></defs><title>gantt_horisontal_recolor03</title><g id="BGSQUARE"><rect class="cls-1" width="1140" height="180"/></g><g id="colors_no_gradient" data-name="colors no gradient"><polygon class="cls-2" points="1118.05 144.52 938.75 144.52 938.75 157.02 938.75 169.52 1118.05 169.52 1128.65 157.02 1118.05 144.52"/><polygon class="cls-3" points="1022.29 111 334 111 334 123.5 334 136 1022.29 136 1032.9 123.5 1022.29 111"/><polygon class="cls-4" points="534.36 45 125 45 125 57.5 125 70 534.36 70 543.5 57.5 534.36 45"/><polygon class="cls-5" points="898.72 78 260 78 260 90.5 260 103 898.72 103 908.68 90.5 898.72 78"/><polygon class="cls-6" points="821.99 12 11 12 11 24.5 11 37 821.99 37 830.1 24.5 821.99 12"/></g><g id="TEkst_copy" data-name="TEkst copy"><path class="cls-7" d="M26.22,31h-.9V18.15h7V19H26.22v5.45H32v.83h-5.8Z" transform="translate(-1.5)"/><path class="cls-7" d="M39.94,31l-.22-1.51h-.07a4.54,4.54,0,0,1-1.48,1.31,4,4,0,0,1-1.8.38,3.11,3.11,0,0,1-2.19-.72,2.58,2.58,0,0,1-.78-2,2.46,2.46,0,0,1,1.16-2.17,6.33,6.33,0,0,1,3.37-.82l1.82-.05v-.63a3.25,3.25,0,0,0-.55-2.06A2.15,2.15,0,0,0,37.41,22a6,6,0,0,0-2.75.74L34.34,22a7.28,7.28,0,0,1,3.11-.74,3.1,3.1,0,0,1,2.35.82,3.59,3.59,0,0,1,.78,2.55V31Zm-3.52-.62a3,3,0,0,0,3.3-3.3v-.94L38,26.21a6.31,6.31,0,0,0-2.87.63,1.81,1.81,0,0,0-.86,1.66,1.78,1.78,0,0,0,.55,1.39A2.23,2.23,0,0,0,36.42,30.38ZM39.21,18.2a1.81,1.81,0,0,1-.53,1.36,2.12,2.12,0,0,1-2.76,0,1.81,1.81,0,0,1-.53-1.36,1.79,1.79,0,0,1,.53-1.34,2.1,2.1,0,0,1,2.76,0A1.79,1.79,0,0,1,39.21,18.2Zm-3.11,0a1.23,1.23,0,0,0,.33.91,1.32,1.32,0,0,0,1.75,0,1.23,1.23,0,0,0,.33-.91,1.18,1.18,0,0,0-.34-.89A1.19,1.19,0,0,0,37.3,17a1.17,1.17,0,0,0-.87.33A1.21,1.21,0,0,0,36.09,18.2Z" transform="translate(-1.5)"/><path class="cls-7" d="M56.25,26.21a5.41,5.41,0,0,1-1.13,3.65A3.91,3.91,0,0,1,52,31.18a4.05,4.05,0,0,1-2.21-.61,3.88,3.88,0,0,1-1.47-1.74,6.33,6.33,0,0,1-.51-2.62,5.38,5.38,0,0,1,1.13-3.64A3.91,3.91,0,0,1,52,21.26a3.83,3.83,0,0,1,3.09,1.32A5.43,5.43,0,0,1,56.25,26.21Zm-7.54,0a4.86,4.86,0,0,0,.87,3.07,3.27,3.27,0,0,0,4.9,0,4.86,4.86,0,0,0,.87-3.07,4.79,4.79,0,0,0-.87-3.07A3,3,0,0,0,52,22.05a2.93,2.93,0,0,0-2.44,1.09A4.85,4.85,0,0,0,48.71,26.21Z" transform="translate(-1.5)"/><path class="cls-7" d="M61,31l-3.69-9.55h.9l2.47,6.5a20,20,0,0,1,.74,2.18h.05q.36-1.2.74-2.2l2.47-6.48h.9L61.86,31Z" transform="translate(-1.5)"/><path class="cls-7" d="M71,31.18a4.16,4.16,0,0,1-3.25-1.28A5.16,5.16,0,0,1,66.6,26.3a5.6,5.6,0,0,1,1.13-3.66,3.71,3.71,0,0,1,3-1.38,3.27,3.27,0,0,1,2.66,1.18,4.86,4.86,0,0,1,1,3.2v.7H67.52a4.52,4.52,0,0,0,.92,3,3.23,3.23,0,0,0,2.58,1,8,8,0,0,0,1.44-.11A8.73,8.73,0,0,0,74,29.78v.79a7,7,0,0,1-1.49.48A8.29,8.29,0,0,1,71,31.18ZM70.76,22a2.86,2.86,0,0,0-2.21.91,4.29,4.29,0,0,0-1,2.62h5.91a4.17,4.17,0,0,0-.72-2.6A2.38,2.38,0,0,0,70.76,22Z" transform="translate(-1.5)"/><path class="cls-7" d="M80.8,21.26a7.48,7.48,0,0,1,1.3.12l-.17.83a5.09,5.09,0,0,0-1.24-.15,2.41,2.41,0,0,0-2,1,4.23,4.23,0,0,0-.78,2.62V31H77V21.45h.74l.09,1.72h.06a4.05,4.05,0,0,1,1.26-1.48A2.94,2.94,0,0,1,80.8,21.26Z" transform="translate(-1.5)"/><path class="cls-7" d="M88.07,21.26a3.64,3.64,0,0,1,3,1.26,5.77,5.77,0,0,1,1,3.69A5.62,5.62,0,0,1,91,29.88a3.68,3.68,0,0,1-3,1.29,4,4,0,0,1-1.84-.42,3.22,3.22,0,0,1-1.29-1.2h-.08L84.58,31H84V17.32h.87v3.44q0,.77,0,1.42l0,.75h.06a3.49,3.49,0,0,1,1.31-1.27A3.93,3.93,0,0,1,88.07,21.26Zm0,.79a2.83,2.83,0,0,0-2.42,1,5.39,5.39,0,0,0-.73,3.19v.15a5,5,0,0,0,.76,3.1A2.87,2.87,0,0,0,88,30.4a2.72,2.72,0,0,0,2.36-1.09,5.26,5.26,0,0,0,.79-3.12Q91.18,22.05,88.06,22.05Z" transform="translate(-1.5)"/><path class="cls-7" d="M95.62,31h-.87V17.32h.87Z" transform="translate(-1.5)"/><path class="cls-7" d="M98.7,18.79q0-.84.55-.84a.49.49,0,0,1,.43.22,1.08,1.08,0,0,1,.15.62,1.1,1.1,0,0,1-.15.62.49.49,0,0,1-.43.23Q98.7,19.64,98.7,18.79Zm1,12.21h-.87V21.45h.87Z" transform="translate(-1.5)"/><path class="cls-7" d="M103.74,26.81l4.88-5.36h1.05l-3.76,4.08L110,31h-1l-3.63-4.83-1.56,1.42V31h-.87V17.32h.87v6.86l-.06,2.63Z" transform="translate(-1.5)"/><path class="cls-7" d="M124.18,26.21A5.41,5.41,0,0,1,123,29.86a3.91,3.91,0,0,1-3.13,1.31,4.05,4.05,0,0,1-2.21-.61,3.88,3.88,0,0,1-1.47-1.74,6.33,6.33,0,0,1-.51-2.62,5.38,5.38,0,0,1,1.13-3.64A3.91,3.91,0,0,1,120,21.26a3.83,3.83,0,0,1,3.09,1.32A5.43,5.43,0,0,1,124.18,26.21Zm-7.54,0a4.86,4.86,0,0,0,.87,3.07,3.27,3.27,0,0,0,4.9,0,4.86,4.86,0,0,0,.87-3.07,4.79,4.79,0,0,0-.87-3.07,3,3,0,0,0-2.46-1.09,2.93,2.93,0,0,0-2.44,1.09A4.85,4.85,0,0,0,116.64,26.21Z" transform="translate(-1.5)"/><path class="cls-7" d="M128.92,31l-3.69-9.55h.9l2.47,6.5a20,20,0,0,1,.74,2.18h.05q.36-1.2.74-2.2l2.47-6.48h.9L129.79,31Z" transform="translate(-1.5)"/><path class="cls-7" d="M138.94,31.18a4.16,4.16,0,0,1-3.25-1.28,5.16,5.16,0,0,1-1.16-3.59,5.6,5.6,0,0,1,1.13-3.66,3.71,3.71,0,0,1,3-1.38,3.27,3.27,0,0,1,2.66,1.18,4.86,4.86,0,0,1,1,3.2v.7h-6.88a4.52,4.52,0,0,0,.92,3,3.23,3.23,0,0,0,2.58,1,8,8,0,0,0,1.44-.11,8.73,8.73,0,0,0,1.57-.49v.79a7,7,0,0,1-1.49.48A8.29,8.29,0,0,1,138.94,31.18ZM138.69,22a2.86,2.86,0,0,0-2.21.91,4.29,4.29,0,0,0-1,2.62h5.91a4.17,4.17,0,0,0-.72-2.6A2.38,2.38,0,0,0,138.69,22Z" transform="translate(-1.5)"/><path class="cls-7" d="M148.73,21.26a7.48,7.48,0,0,1,1.3.12l-.17.83a5.09,5.09,0,0,0-1.24-.15,2.41,2.41,0,0,0-2,1,4.23,4.23,0,0,0-.78,2.62V31H145V21.45h.74l.09,1.72h.06a4.05,4.05,0,0,1,1.26-1.48A2.94,2.94,0,0,1,148.73,21.26Z" transform="translate(-1.5)"/><path class="cls-7" d="M164,27.69a3.08,3.08,0,0,1-1.18,2.55,4.9,4.9,0,0,1-3.14.94,9.84,9.84,0,0,1-3.61-.52v-.9a9.14,9.14,0,0,0,3.54.59,4,4,0,0,0,2.51-.73,2.3,2.3,0,0,0,.93-1.9,2.2,2.2,0,0,0-.31-1.21,2.81,2.81,0,0,0-1-.87,12.36,12.36,0,0,0-2-.85,7,7,0,0,1-2.72-1.46,3.14,3.14,0,0,1,.38-4.45,4.49,4.49,0,0,1,2.9-.91,8.5,8.5,0,0,1,3.4.69l-.33.77a7.93,7.93,0,0,0-3.06-.67,3.59,3.59,0,0,0-2.27.66,2.15,2.15,0,0,0-.84,1.79,2.35,2.35,0,0,0,.26,1.17,2.38,2.38,0,0,0,.85.82,11.61,11.61,0,0,0,2,.87,10.9,10.9,0,0,1,2.26,1,3.23,3.23,0,0,1,1.1,1.11A3,3,0,0,1,164,27.69Z" transform="translate(-1.5)"/><path class="cls-7" d="M173.77,27.69a3.08,3.08,0,0,1-1.18,2.55,4.9,4.9,0,0,1-3.14.94,9.84,9.84,0,0,1-3.61-.52v-.9a9.14,9.14,0,0,0,3.54.59,4,4,0,0,0,2.51-.73,2.3,2.3,0,0,0,.93-1.9,2.2,2.2,0,0,0-.31-1.21,2.81,2.81,0,0,0-1-.87,12.36,12.36,0,0,0-2-.85,7,7,0,0,1-2.72-1.46,3.14,3.14,0,0,1,.38-4.45A4.49,4.49,0,0,1,170,18a8.5,8.5,0,0,1,3.4.69l-.33.77a7.93,7.93,0,0,0-3.06-.67,3.59,3.59,0,0,0-2.27.66,2.15,2.15,0,0,0-.84,1.79,2.35,2.35,0,0,0,.26,1.17,2.38,2.38,0,0,0,.85.82,11.61,11.61,0,0,0,2,.87,10.9,10.9,0,0,1,2.26,1,3.23,3.23,0,0,1,1.1,1.11A3,3,0,0,1,173.77,27.69Z" transform="translate(-1.5)"/><path class="cls-7" d="M187.28,24.56a7.18,7.18,0,0,1-1.53,4.84,5.88,5.88,0,0,1-8.43,0,7.21,7.21,0,0,1-1.53-4.86,7.08,7.08,0,0,1,1.54-4.83,5.31,5.31,0,0,1,4.21-1.76,5.25,5.25,0,0,1,4.21,1.77A7.18,7.18,0,0,1,187.28,24.56Zm-10.51,0A6.58,6.58,0,0,0,178,28.82a4.93,4.93,0,0,0,7.08,0,6.59,6.59,0,0,0,1.23-4.28,6.52,6.52,0,0,0-1.23-4.26,4.94,4.94,0,0,0-7.07,0A6.46,6.46,0,0,0,176.77,24.56Z" transform="translate(-1.5)"/><path class="cls-7" d="M146.91,50.15h1L143.08,63h-.79L137.5,50.15h1l3.23,8.75q.74,2,1,3,.18-.66.69-2Z" transform="translate(-1.5)"/><path class="cls-7" d="M158.81,63.18a3.42,3.42,0,0,1-3.49-2.25,3.73,3.73,0,0,1-3.69,2.25,3,3,0,0,1-2.13-.73,2.63,2.63,0,0,1-.76-2,2.48,2.48,0,0,1,1.1-2.14,6.07,6.07,0,0,1,3.31-.85l1.77-.05v-.63a3.31,3.31,0,0,0-.54-2.06,2.07,2.07,0,0,0-1.74-.69,5.67,5.67,0,0,0-2.68.74l-.33-.76a6.91,6.91,0,0,1,3-.74,2.63,2.63,0,0,1,2.86,1.85,3.22,3.22,0,0,1,3-1.87,3.06,3.06,0,0,1,2.54,1.18,5,5,0,0,1,.93,3.19v.7h-6.28q0,4,3.06,4a7.33,7.33,0,0,0,1.32-.11,8.19,8.19,0,0,0,1.53-.5v.79a6.76,6.76,0,0,1-1.45.48A7.53,7.53,0,0,1,158.81,63.18Zm-7.11-.79a3.11,3.11,0,0,0,2.34-.87,3.33,3.33,0,0,0,.85-2.43v-.94l-1.64.07a5.86,5.86,0,0,0-2.75.63,1.83,1.83,0,0,0-.83,1.66,1.8,1.8,0,0,0,.54,1.39A2.12,2.12,0,0,0,151.7,62.38ZM158.58,54q-2.5,0-2.76,3.53h5.31a4.35,4.35,0,0,0-.68-2.59A2.18,2.18,0,0,0,158.58,54Z" transform="translate(-1.5)"/><path class="cls-7" d="M165.57,63h-.87V49.32h.87Z" transform="translate(-1.5)"/><path class="cls-7" d="M176.22,53.45v.61l-2,.12a3.37,3.37,0,0,1,.79,2.16,2.92,2.92,0,0,1-.92,2.24,3.47,3.47,0,0,1-2.47.86,5.36,5.36,0,0,1-.91-.05,2.27,2.27,0,0,0-.79.64,1.3,1.3,0,0,0-.27.78.72.72,0,0,0,.35.67,2.36,2.36,0,0,0,1.16.21h1.67a3.88,3.88,0,0,1,2.38.63,2.19,2.19,0,0,1,.83,1.86,2.65,2.65,0,0,1-1.23,2.33,6.25,6.25,0,0,1-3.49.82,4.81,4.81,0,0,1-2.79-.69,2.23,2.23,0,0,1-1-1.93,2.29,2.29,0,0,1,.61-1.63,3.16,3.16,0,0,1,1.66-.89,1.68,1.68,0,0,1-.69-.52,1.24,1.24,0,0,1-.26-.78,2,2,0,0,1,1.22-1.69,2.72,2.72,0,0,1-1.3-1.08,3.07,3.07,0,0,1-.47-1.68,3,3,0,0,1,.91-2.3,3.42,3.42,0,0,1,2.46-.87,4.53,4.53,0,0,1,1.46.18Zm-7.73,11.17q0,2,2.93,2,3.76,0,3.76-2.4a1.38,1.38,0,0,0-.59-1.25,3.59,3.59,0,0,0-1.91-.39h-1.56Q168.49,62.55,168.49,64.62Zm.73-8.19a2.2,2.2,0,0,0,.67,1.72,3,3,0,0,0,3.63,0,2.31,2.31,0,0,0,.64-1.76,2.39,2.39,0,0,0-.65-1.83,2.58,2.58,0,0,0-1.83-.61,2.43,2.43,0,0,0-1.8.65A2.47,2.47,0,0,0,169.22,56.43Z" transform="translate(-1.5)"/><path class="cls-7" d="M182,63.18a4.16,4.16,0,0,1-3.25-1.28,5.16,5.16,0,0,1-1.16-3.59,5.6,5.6,0,0,1,1.13-3.66,3.71,3.71,0,0,1,3-1.38,3.27,3.27,0,0,1,2.66,1.18,4.86,4.86,0,0,1,1,3.2v.7h-6.88a4.52,4.52,0,0,0,.92,3,3.23,3.23,0,0,0,2.58,1,8,8,0,0,0,1.44-.11,8.73,8.73,0,0,0,1.57-.49v.79a7,7,0,0,1-1.49.48A8.29,8.29,0,0,1,182,63.18ZM181.79,54a2.86,2.86,0,0,0-2.21.91,4.29,4.29,0,0,0-1,2.62h5.91a4.17,4.17,0,0,0-.72-2.6A2.38,2.38,0,0,0,181.79,54Z" transform="translate(-1.5)"/><path class="cls-7" d="M196.29,54.2H194V63h-.87V54.2h-1.78v-.51l1.78-.33v-.74a4.17,4.17,0,0,1,.65-2.58,2.53,2.53,0,0,1,2.11-.82,5.48,5.48,0,0,1,1.58.24l-.2.76a4.66,4.66,0,0,0-1.4-.22,1.65,1.65,0,0,0-1.45.6,3.46,3.46,0,0,0-.43,2v.89h2.25Z" transform="translate(-1.5)"/><path class="cls-7" d="M203.94,63l-.22-1.51h-.07a4.54,4.54,0,0,1-1.48,1.31,4,4,0,0,1-1.8.38,3.11,3.11,0,0,1-2.19-.72,2.58,2.58,0,0,1-.78-2,2.46,2.46,0,0,1,1.16-2.17,6.33,6.33,0,0,1,3.37-.82l1.82-.05v-.63a3.25,3.25,0,0,0-.55-2.06,2.15,2.15,0,0,0-1.78-.69,6,6,0,0,0-2.75.74l-.33-.76a7.28,7.28,0,0,1,3.11-.74,3.1,3.1,0,0,1,2.35.82,3.59,3.59,0,0,1,.78,2.55V63Zm-3.52-.62a3,3,0,0,0,3.3-3.3v-.94l-1.67.07a6.31,6.31,0,0,0-2.87.63,1.81,1.81,0,0,0-.86,1.66,1.78,1.78,0,0,0,.55,1.39A2.23,2.23,0,0,0,200.42,62.38Z" transform="translate(-1.5)"/><path class="cls-7" d="M215.13,53.45v.61l-2,.12a3.37,3.37,0,0,1,.79,2.16,2.92,2.92,0,0,1-.92,2.24,3.47,3.47,0,0,1-2.47.86,5.36,5.36,0,0,1-.91-.05,2.27,2.27,0,0,0-.79.64,1.3,1.3,0,0,0-.27.78.72.72,0,0,0,.35.67,2.36,2.36,0,0,0,1.16.21h1.67a3.88,3.88,0,0,1,2.38.63,2.19,2.19,0,0,1,.83,1.86,2.65,2.65,0,0,1-1.23,2.33,6.25,6.25,0,0,1-3.49.82,4.81,4.81,0,0,1-2.79-.69,2.23,2.23,0,0,1-1-1.93,2.29,2.29,0,0,1,.61-1.63,3.16,3.16,0,0,1,1.66-.89,1.68,1.68,0,0,1-.69-.52,1.24,1.24,0,0,1-.26-.78A2,2,0,0,1,209,59.19a2.72,2.72,0,0,1-1.3-1.08,3.07,3.07,0,0,1-.47-1.68,3,3,0,0,1,.91-2.3,3.42,3.42,0,0,1,2.46-.87,4.53,4.53,0,0,1,1.46.18Zm-7.73,11.17q0,2,2.93,2,3.76,0,3.76-2.4a1.38,1.38,0,0,0-.59-1.25,3.59,3.59,0,0,0-1.91-.39H210Q207.39,62.55,207.39,64.62Zm.73-8.19a2.2,2.2,0,0,0,.67,1.72,3,3,0,0,0,3.63,0,2.31,2.31,0,0,0,.64-1.76,2.39,2.39,0,0,0-.65-1.83,2.58,2.58,0,0,0-1.83-.61,2.43,2.43,0,0,0-1.8.65A2.47,2.47,0,0,0,208.12,56.43Z" transform="translate(-1.5)"/><path class="cls-7" d="M229.66,58.21a5.41,5.41,0,0,1-1.13,3.65,3.91,3.91,0,0,1-3.13,1.31,4.05,4.05,0,0,1-2.21-.61,3.88,3.88,0,0,1-1.47-1.74,6.33,6.33,0,0,1-.51-2.62,5.38,5.38,0,0,1,1.13-3.64,3.91,3.91,0,0,1,3.11-1.31,3.83,3.83,0,0,1,3.09,1.32A5.43,5.43,0,0,1,229.66,58.21Zm-7.54,0a4.86,4.86,0,0,0,.87,3.07,3.27,3.27,0,0,0,4.9,0,4.86,4.86,0,0,0,.87-3.07,4.79,4.79,0,0,0-.87-3.07,3,3,0,0,0-2.46-1.09A2.93,2.93,0,0,0,223,55.14,4.85,4.85,0,0,0,222.12,58.21Z" transform="translate(-1.5)"/><path class="cls-7" d="M239.76,53.45v.61l-2,.12a3.37,3.37,0,0,1,.79,2.16,2.92,2.92,0,0,1-.92,2.24,3.47,3.47,0,0,1-2.47.86,5.36,5.36,0,0,1-.91-.05,2.27,2.27,0,0,0-.79.64,1.3,1.3,0,0,0-.27.78.72.72,0,0,0,.35.67,2.36,2.36,0,0,0,1.16.21h1.67a3.88,3.88,0,0,1,2.38.63,2.19,2.19,0,0,1,.83,1.86,2.65,2.65,0,0,1-1.23,2.33,6.25,6.25,0,0,1-3.49.82,4.81,4.81,0,0,1-2.79-.69,2.23,2.23,0,0,1-1-1.93,2.29,2.29,0,0,1,.61-1.63,3.16,3.16,0,0,1,1.66-.89,1.68,1.68,0,0,1-.69-.52,1.24,1.24,0,0,1-.26-.78,2,2,0,0,1,1.22-1.69,2.72,2.72,0,0,1-1.3-1.08,3.07,3.07,0,0,1-.47-1.68,3,3,0,0,1,.91-2.3,3.42,3.42,0,0,1,2.46-.87,4.53,4.53,0,0,1,1.46.18ZM232,64.62q0,2,2.93,2,3.76,0,3.76-2.4a1.38,1.38,0,0,0-.59-1.25,3.59,3.59,0,0,0-1.91-.39h-1.56Q232,62.55,232,64.62Zm.73-8.19a2.2,2.2,0,0,0,.67,1.72,3,3,0,0,0,3.63,0,2.31,2.31,0,0,0,.64-1.76,2.39,2.39,0,0,0-.65-1.83,2.58,2.58,0,0,0-1.83-.61,2.43,2.43,0,0,0-1.8.65A2.47,2.47,0,0,0,232.76,56.43Z" transform="translate(-1.5)"/><path class="cls-7" d="M250.25,63.18A4.16,4.16,0,0,1,247,61.89a5.16,5.16,0,0,1-1.16-3.59A5.6,5.6,0,0,1,247,54.64a3.71,3.71,0,0,1,3-1.38,3.27,3.27,0,0,1,2.66,1.18,4.86,4.86,0,0,1,1,3.2v.7h-6.88a4.52,4.52,0,0,0,.92,3,3.23,3.23,0,0,0,2.58,1,8,8,0,0,0,1.44-.11,8.73,8.73,0,0,0,1.57-.49v.79a7,7,0,0,1-1.49.48A8.29,8.29,0,0,1,250.25,63.18ZM250,54a2.86,2.86,0,0,0-2.21.91,4.29,4.29,0,0,0-1,2.62h5.91A4.17,4.17,0,0,0,252,55,2.38,2.38,0,0,0,250,54Z" transform="translate(-1.5)"/><path class="cls-7" d="M268.21,63V56.73a3.12,3.12,0,0,0-.54-2,2.07,2.07,0,0,0-1.67-.64,2.73,2.73,0,0,0-2.17.81,3.81,3.81,0,0,0-.7,2.54V63h-.89V56.47q0-2.42-2.21-2.42a2.61,2.61,0,0,0-2.19.87,4.55,4.55,0,0,0-.69,2.8V63h-.87V53.45H257l.18,1.31h.05a2.74,2.74,0,0,1,1.13-1.1,3.35,3.35,0,0,1,1.61-.39,2.75,2.75,0,0,1,2.9,1.7h0a3.25,3.25,0,0,1,1.25-1.26,3.6,3.6,0,0,1,1.79-.44,3.07,3.07,0,0,1,2.35.83,3.79,3.79,0,0,1,.78,2.65V63Z" transform="translate(-1.5)"/><path class="cls-7" d="M278.83,63V56.8a3,3,0,0,0-.61-2.1,2.45,2.45,0,0,0-1.88-.65,3.26,3.26,0,0,0-2.51.87,4.08,4.08,0,0,0-.8,2.81V63h-.87V53.45h.74l.17,1.31h.05a3.59,3.59,0,0,1,3.31-1.49q3.25,0,3.25,3.49V63Z" transform="translate(-1.5)"/><path class="cls-7" d="M286.64,63.18a4.16,4.16,0,0,1-3.25-1.28,5.16,5.16,0,0,1-1.16-3.59,5.6,5.6,0,0,1,1.13-3.66,3.71,3.71,0,0,1,3-1.38A3.27,3.27,0,0,1,289,54.44a4.86,4.86,0,0,1,1,3.2v.7h-6.88a4.52,4.52,0,0,0,.92,3,3.23,3.23,0,0,0,2.58,1,8,8,0,0,0,1.44-.11,8.73,8.73,0,0,0,1.57-.49v.79a7,7,0,0,1-1.49.48A8.29,8.29,0,0,1,286.64,63.18ZM286.39,54a2.86,2.86,0,0,0-2.21.91,4.29,4.29,0,0,0-1,2.62h5.91a4.17,4.17,0,0,0-.72-2.6A2.38,2.38,0,0,0,286.39,54Z" transform="translate(-1.5)"/><path class="cls-7" d="M279.41,93.69a3.08,3.08,0,0,1-1.18,2.55,4.9,4.9,0,0,1-3.14.94,9.84,9.84,0,0,1-3.61-.52v-.9a9.14,9.14,0,0,0,3.54.59,4,4,0,0,0,2.51-.72,2.3,2.3,0,0,0,.93-1.9,2.19,2.19,0,0,0-.31-1.21,2.8,2.8,0,0,0-1-.87,12.36,12.36,0,0,0-2-.85,7,7,0,0,1-2.72-1.46,3.14,3.14,0,0,1,.38-4.45,4.49,4.49,0,0,1,2.9-.91,8.5,8.5,0,0,1,3.4.69l-.33.77a7.93,7.93,0,0,0-3.06-.67,3.59,3.59,0,0,0-2.27.66,2.15,2.15,0,0,0-.84,1.79,2.35,2.35,0,0,0,.26,1.17,2.38,2.38,0,0,0,.85.82,11.61,11.61,0,0,0,2,.87,10.93,10.93,0,0,1,2.26,1,3.25,3.25,0,0,1,1.1,1.11A3,3,0,0,1,279.41,93.69Z" transform="translate(-1.5)"/><path class="cls-7" d="M289.81,92.21a5.41,5.41,0,0,1-1.13,3.65,3.91,3.91,0,0,1-3.13,1.31,3.87,3.87,0,0,1-2.56-.86l-.76,1-.63-.51.82-1.05a5.53,5.53,0,0,1-1.06-3.53,5.38,5.38,0,0,1,1.13-3.64,4.33,4.33,0,0,1,5.76-.39l.84-1.09.65.48-.91,1.2A5.53,5.53,0,0,1,289.81,92.21Zm-7.54,0A5.19,5.19,0,0,0,283,95l4.77-6.2a3.07,3.07,0,0,0-2.16-.79,2.93,2.93,0,0,0-2.44,1.09A4.85,4.85,0,0,0,282.27,92.21Zm6.63,0a5.19,5.19,0,0,0-.63-2.72l-4.77,6.17a3.07,3.07,0,0,0,2.09.72,2.93,2.93,0,0,0,2.45-1.1A4.86,4.86,0,0,0,288.9,92.21Z" transform="translate(-1.5)"/><path class="cls-7" d="M299.91,87.45v.61l-2,.12a3.37,3.37,0,0,1,.79,2.16,2.92,2.92,0,0,1-.92,2.24,3.47,3.47,0,0,1-2.47.86,5.36,5.36,0,0,1-.91-.05,2.27,2.27,0,0,0-.79.64,1.3,1.3,0,0,0-.27.78.72.72,0,0,0,.35.67,2.36,2.36,0,0,0,1.16.21h1.67a3.87,3.87,0,0,1,2.38.63,2.19,2.19,0,0,1,.83,1.86,2.64,2.64,0,0,1-1.23,2.33,6.24,6.24,0,0,1-3.49.82,4.81,4.81,0,0,1-2.79-.69,2.23,2.23,0,0,1-1-1.93,2.29,2.29,0,0,1,.61-1.63,3.16,3.16,0,0,1,1.66-.89,1.68,1.68,0,0,1-.69-.52,1.24,1.24,0,0,1-.26-.78,2,2,0,0,1,1.22-1.69,2.73,2.73,0,0,1-1.3-1.08,3.08,3.08,0,0,1-.47-1.68,3,3,0,0,1,.91-2.3,3.42,3.42,0,0,1,2.46-.87,4.53,4.53,0,0,1,1.46.18Zm-7.73,11.17q0,2,2.93,2,3.76,0,3.76-2.4a1.38,1.38,0,0,0-.59-1.25,3.59,3.59,0,0,0-1.91-.39H294.8Q292.17,96.55,292.17,98.62Zm.73-8.19a2.21,2.21,0,0,0,.67,1.72,3,3,0,0,0,3.63,0,2.31,2.31,0,0,0,.64-1.76,2.39,2.39,0,0,0-.65-1.83,2.58,2.58,0,0,0-1.83-.61,2.43,2.43,0,0,0-1.8.65A2.47,2.47,0,0,0,292.9,90.43Z" transform="translate(-1.5)"/><path class="cls-7" d="M305.73,97.18a4.16,4.16,0,0,1-3.25-1.28,5.16,5.16,0,0,1-1.16-3.59,5.6,5.6,0,0,1,1.13-3.66,3.71,3.71,0,0,1,3-1.38,3.27,3.27,0,0,1,2.66,1.18,4.86,4.86,0,0,1,1,3.2v.7h-6.88a4.52,4.52,0,0,0,.92,3,3.23,3.23,0,0,0,2.58,1,8,8,0,0,0,1.44-.11,8.73,8.73,0,0,0,1.57-.49v.79a7.06,7.06,0,0,1-1.49.48A8.38,8.38,0,0,1,305.73,97.18ZM305.47,88a2.86,2.86,0,0,0-2.21.91,4.29,4.29,0,0,0-1,2.62h5.91a4.17,4.17,0,0,0-.72-2.6A2.38,2.38,0,0,0,305.47,88Z" transform="translate(-1.5)"/><path class="cls-7" d="M320.28,97.18A4.16,4.16,0,0,1,317,95.89a5.16,5.16,0,0,1-1.16-3.59A5.6,5.6,0,0,1,317,88.64a3.71,3.71,0,0,1,3-1.38,3.27,3.27,0,0,1,2.66,1.18,4.86,4.86,0,0,1,1,3.2v.7h-6.88a4.52,4.52,0,0,0,.92,3,3.23,3.23,0,0,0,2.58,1,8,8,0,0,0,1.44-.11,8.73,8.73,0,0,0,1.57-.49v.79a7.06,7.06,0,0,1-1.49.48A8.38,8.38,0,0,1,320.28,97.18ZM320,88a2.86,2.86,0,0,0-2.21.91,4.29,4.29,0,0,0-1,2.62h5.91A4.17,4.17,0,0,0,322,89,2.38,2.38,0,0,0,320,88Z" transform="translate(-1.5)"/><path class="cls-7" d="M329.85,88.2H327.6V97h-.87V88.2H325v-.51l1.78-.33v-.74a4.17,4.17,0,0,1,.65-2.58,2.53,2.53,0,0,1,2.11-.82,5.48,5.48,0,0,1,1.58.24l-.2.76a4.66,4.66,0,0,0-1.4-.22,1.65,1.65,0,0,0-1.45.6,3.46,3.46,0,0,0-.43,2v.89h2.25Z" transform="translate(-1.5)"/><path class="cls-7" d="M334.22,96.4a6.53,6.53,0,0,0,1.44-.14V97a4.61,4.61,0,0,1-1.46.21,2.38,2.38,0,0,1-1.87-.68,3.14,3.14,0,0,1-.6-2.13V88.2h-1.42v-.51l1.42-.4.44-2.16h.45v2.31h2.8v.76h-2.8v6a2.76,2.76,0,0,0,.39,1.63A1.4,1.4,0,0,0,334.22,96.4Z" transform="translate(-1.5)"/><path class="cls-7" d="M341.59,97.18a4.16,4.16,0,0,1-3.25-1.28,5.16,5.16,0,0,1-1.16-3.59,5.6,5.6,0,0,1,1.13-3.66,3.71,3.71,0,0,1,3-1.38A3.27,3.27,0,0,1,344,88.44a4.86,4.86,0,0,1,1,3.2v.7h-6.88a4.52,4.52,0,0,0,.92,3,3.23,3.23,0,0,0,2.58,1,8,8,0,0,0,1.44-.11,8.73,8.73,0,0,0,1.57-.49v.79a7.06,7.06,0,0,1-1.49.48A8.38,8.38,0,0,1,341.59,97.18ZM341.33,88a2.86,2.86,0,0,0-2.21.91,4.29,4.29,0,0,0-1,2.62H344a4.17,4.17,0,0,0-.72-2.6A2.38,2.38,0,0,0,341.33,88Z" transform="translate(-1.5)"/><path class="cls-7" d="M351.37,87.26a7.48,7.48,0,0,1,1.3.12l-.17.83a5.09,5.09,0,0,0-1.24-.15,2.41,2.41,0,0,0-2,1,4.23,4.23,0,0,0-.78,2.62V97h-.87V87.45h.74l.09,1.72h.06a4.05,4.05,0,0,1,1.26-1.48A2.94,2.94,0,0,1,351.37,87.26Z" transform="translate(-1.5)"/><path class="cls-7" d="M371.22,97V90.73a3.12,3.12,0,0,0-.54-2,2.07,2.07,0,0,0-1.67-.64,2.73,2.73,0,0,0-2.17.81,3.81,3.81,0,0,0-.7,2.54V97h-.89V90.47q0-2.42-2.21-2.42a2.61,2.61,0,0,0-2.19.87,4.55,4.55,0,0,0-.69,2.8V97h-.87V87.45H360l.18,1.31h.05a2.74,2.74,0,0,1,1.13-1.1,3.35,3.35,0,0,1,1.61-.39,2.75,2.75,0,0,1,2.9,1.7h0a3.25,3.25,0,0,1,1.25-1.26,3.6,3.6,0,0,1,1.79-.44,3.07,3.07,0,0,1,2.35.83,3.79,3.79,0,0,1,.78,2.65V97Z" transform="translate(-1.5)"/><path class="cls-7" d="M381,97l-.22-1.51h-.07a4.52,4.52,0,0,1-1.48,1.3,3.94,3.94,0,0,1-1.8.38,3.11,3.11,0,0,1-2.19-.72,2.58,2.58,0,0,1-.78-2,2.46,2.46,0,0,1,1.16-2.17,6.33,6.33,0,0,1,3.37-.82l1.82-.05v-.63a3.25,3.25,0,0,0-.55-2.06,2.15,2.15,0,0,0-1.78-.69,6,6,0,0,0-2.75.74l-.33-.76a7.28,7.28,0,0,1,3.11-.74,3.1,3.1,0,0,1,2.35.82,3.59,3.59,0,0,1,.78,2.55V97Zm-3.52-.62a3,3,0,0,0,3.3-3.3v-.94l-1.67.07a6.32,6.32,0,0,0-2.87.63,1.81,1.81,0,0,0-.86,1.66,1.78,1.78,0,0,0,.55,1.39A2.24,2.24,0,0,0,377.46,96.38Z" transform="translate(-1.5)"/><path class="cls-7" d="M387.24,96.4a6.53,6.53,0,0,0,1.44-.14V97a4.61,4.61,0,0,1-1.46.21,2.38,2.38,0,0,1-1.87-.68,3.14,3.14,0,0,1-.6-2.13V88.2h-1.42v-.51l1.42-.4.44-2.16h.45v2.31h2.8v.76h-2.8v6a2.76,2.76,0,0,0,.39,1.63A1.4,1.4,0,0,0,387.24,96.4Z" transform="translate(-1.5)"/><path class="cls-7" d="M394.6,97.18a4.16,4.16,0,0,1-3.25-1.28,5.16,5.16,0,0,1-1.16-3.59,5.6,5.6,0,0,1,1.13-3.66,3.71,3.71,0,0,1,3-1.38A3.27,3.27,0,0,1,397,88.44a4.86,4.86,0,0,1,1,3.2v.7H391.1a4.52,4.52,0,0,0,.92,3,3.23,3.23,0,0,0,2.58,1,8,8,0,0,0,1.44-.11,8.73,8.73,0,0,0,1.57-.49v.79a7.06,7.06,0,0,1-1.49.48A8.38,8.38,0,0,1,394.6,97.18ZM394.35,88a2.86,2.86,0,0,0-2.21.91,4.29,4.29,0,0,0-1,2.62h5.91a4.17,4.17,0,0,0-.72-2.6A2.38,2.38,0,0,0,394.35,88Z" transform="translate(-1.5)"/><path class="cls-7" d="M404.38,87.26a7.48,7.48,0,0,1,1.3.12l-.17.83a5.09,5.09,0,0,0-1.24-.15,2.41,2.41,0,0,0-2,1,4.23,4.23,0,0,0-.78,2.62V97h-.87V87.45h.74l.09,1.72h.06a4.05,4.05,0,0,1,1.26-1.48A2.94,2.94,0,0,1,404.38,87.26Z" transform="translate(-1.5)"/><path class="cls-7" d="M407.5,84.79q0-.84.55-.84a.49.49,0,0,1,.43.22,1.08,1.08,0,0,1,.15.62,1.1,1.1,0,0,1-.15.62.49.49,0,0,1-.43.23Q407.5,85.64,407.5,84.79Zm1,12.21h-.87V87.45h.87Z" transform="translate(-1.5)"/><path class="cls-7" d="M417.5,97l-.22-1.51h-.07a4.52,4.52,0,0,1-1.48,1.3,3.94,3.94,0,0,1-1.8.38,3.11,3.11,0,0,1-2.19-.72,2.58,2.58,0,0,1-.78-2,2.46,2.46,0,0,1,1.16-2.17,6.33,6.33,0,0,1,3.37-.82l1.82-.05v-.63a3.25,3.25,0,0,0-.55-2.06A2.15,2.15,0,0,0,415,88a6,6,0,0,0-2.75.74L411.9,88a7.28,7.28,0,0,1,3.11-.74,3.1,3.1,0,0,1,2.35.82,3.59,3.59,0,0,1,.78,2.55V97ZM414,96.38a3,3,0,0,0,3.3-3.3v-.94l-1.67.07a6.32,6.32,0,0,0-2.87.63,1.81,1.81,0,0,0-.86,1.66,1.78,1.78,0,0,0,.55,1.39A2.24,2.24,0,0,0,414,96.38Z" transform="translate(-1.5)"/><path class="cls-7" d="M422.1,97h-.87V83.32h.87Z" transform="translate(-1.5)"/><path class="cls-7" d="M429.16,97.18a4.16,4.16,0,0,1-3.25-1.28,5.16,5.16,0,0,1-1.16-3.59,5.6,5.6,0,0,1,1.13-3.66,3.71,3.71,0,0,1,3-1.38,3.27,3.27,0,0,1,2.66,1.18,4.86,4.86,0,0,1,1,3.2v.7h-6.88a4.52,4.52,0,0,0,.92,3,3.23,3.23,0,0,0,2.58,1,8,8,0,0,0,1.44-.11,8.73,8.73,0,0,0,1.57-.49v.79a7.06,7.06,0,0,1-1.49.48A8.38,8.38,0,0,1,429.16,97.18ZM428.91,88a2.86,2.86,0,0,0-2.21.91,4.29,4.29,0,0,0-1,2.62h5.91a4.17,4.17,0,0,0-.72-2.6A2.38,2.38,0,0,0,428.91,88Z" transform="translate(-1.5)"/><path class="cls-7" d="M349.32,130V117.15h.9v12h6.13V130Z" transform="translate(-1.5)"/><path class="cls-7" d="M367.66,130.18a3.42,3.42,0,0,1-3.49-2.25,3.73,3.73,0,0,1-3.69,2.25,3,3,0,0,1-2.13-.72,2.63,2.63,0,0,1-.76-2,2.48,2.48,0,0,1,1.1-2.14,6.07,6.07,0,0,1,3.31-.85l1.77-.05v-.63a3.31,3.31,0,0,0-.54-2.06,2.07,2.07,0,0,0-1.74-.69,5.67,5.67,0,0,0-2.68.74l-.33-.76a6.91,6.91,0,0,1,3-.74,2.63,2.63,0,0,1,2.86,1.85,3.22,3.22,0,0,1,3-1.87,3.06,3.06,0,0,1,2.54,1.18,5,5,0,0,1,.93,3.2v.7h-6.28q0,4,3.06,4a7.33,7.33,0,0,0,1.32-.11,8.19,8.19,0,0,0,1.53-.5v.79a6.76,6.76,0,0,1-1.45.48A7.53,7.53,0,0,1,367.66,130.18Zm-7.11-.79a3.11,3.11,0,0,0,2.34-.87,3.33,3.33,0,0,0,.85-2.43v-.94l-1.64.07a5.88,5.88,0,0,0-2.75.63,1.83,1.83,0,0,0-.83,1.66,1.81,1.81,0,0,0,.54,1.39A2.12,2.12,0,0,0,360.55,129.38Zm6.88-8.35q-2.5,0-2.76,3.53H370a4.35,4.35,0,0,0-.68-2.59A2.18,2.18,0,0,0,367.43,121Z" transform="translate(-1.5)"/><path class="cls-7" d="M379.47,127.51a2.27,2.27,0,0,1-1,2,4.76,4.76,0,0,1-2.77.69,6.6,6.6,0,0,1-3-.59v-.94a6.71,6.71,0,0,0,3,.72,4,4,0,0,0,2.15-.47,1.43,1.43,0,0,0,.73-1.25,1.53,1.53,0,0,0-.58-1.21,6.43,6.43,0,0,0-1.92-1,10.93,10.93,0,0,1-2-.89,2.76,2.76,0,0,1-.87-.84,2.12,2.12,0,0,1-.29-1.15,2,2,0,0,1,.9-1.7,4.38,4.38,0,0,1,2.52-.62,7.54,7.54,0,0,1,2.94.58l-.33.79a6.88,6.88,0,0,0-2.61-.58,3.78,3.78,0,0,0-1.85.39,1.19,1.19,0,0,0-.69,1.07,1.48,1.48,0,0,0,.53,1.2,7.41,7.41,0,0,0,2.08,1,10.16,10.16,0,0,1,1.88.84,2.72,2.72,0,0,1,.88.85A2.07,2.07,0,0,1,379.47,127.51Z" transform="translate(-1.5)"/><path class="cls-7" d="M385.79,130.18a4.16,4.16,0,0,1-3.25-1.28,5.16,5.16,0,0,1-1.16-3.59,5.61,5.61,0,0,1,1.13-3.66,3.72,3.72,0,0,1,3-1.37,3.27,3.27,0,0,1,2.66,1.18,4.86,4.86,0,0,1,1,3.2v.7H382.3a4.52,4.52,0,0,0,.92,3,3.23,3.23,0,0,0,2.58,1,8,8,0,0,0,1.44-.11,8.73,8.73,0,0,0,1.57-.49v.79a7.06,7.06,0,0,1-1.49.48A8.38,8.38,0,0,1,385.79,130.18Zm-.25-9.14a2.86,2.86,0,0,0-2.21.91,4.29,4.29,0,0,0-1,2.62h5.91a4.17,4.17,0,0,0-.72-2.6A2.38,2.38,0,0,0,385.54,121Z" transform="translate(-1.5)"/><path class="cls-7" d="M959.41,159.69a3.09,3.09,0,0,1-1.18,2.55,4.91,4.91,0,0,1-3.14.94,9.84,9.84,0,0,1-3.61-.52v-.9a9.14,9.14,0,0,0,3.54.59,4,4,0,0,0,2.51-.72,2.3,2.3,0,0,0,.93-1.9,2.19,2.19,0,0,0-.31-1.21,2.8,2.8,0,0,0-1-.87,12.36,12.36,0,0,0-2-.85,7,7,0,0,1-2.72-1.46,3.14,3.14,0,0,1,.38-4.45,4.49,4.49,0,0,1,2.9-.91,8.5,8.5,0,0,1,3.4.69l-.33.77a7.93,7.93,0,0,0-3.06-.67,3.59,3.59,0,0,0-2.27.66,2.15,2.15,0,0,0-.84,1.79,2.34,2.34,0,0,0,.26,1.17,2.36,2.36,0,0,0,.85.82,11.53,11.53,0,0,0,2,.88,11,11,0,0,1,2.26,1,3.23,3.23,0,0,1,1.1,1.11A3,3,0,0,1,959.41,159.69Z" transform="translate(-1.5)"/><path class="cls-7" d="M962.76,158.81l4.88-5.36h1.05l-3.76,4.08L969,163h-1l-3.63-4.83-1.56,1.42V163h-.87V149.32h.87v6.86l-.06,2.63Z" transform="translate(-1.5)"/><path class="cls-7" d="M974.38,153.26a7.48,7.48,0,0,1,1.3.12l-.17.83a5.09,5.09,0,0,0-1.24-.15,2.41,2.41,0,0,0-2,1,4.23,4.23,0,0,0-.78,2.62V163h-.87v-9.55h.74l.09,1.72h.06a4.06,4.06,0,0,1,1.26-1.48A3,3,0,0,1,974.38,153.26Z" transform="translate(-1.5)"/><path class="cls-7" d="M977.5,150.79q0-.84.55-.84a.49.49,0,0,1,.43.22,1.09,1.09,0,0,1,.15.62,1.11,1.11,0,0,1-.15.62.49.49,0,0,1-.43.23Q977.5,151.64,977.5,150.79Zm1,12.21h-.87v-9.55h.87Z" transform="translate(-1.5)"/><path class="cls-7" d="M983.78,163l-3.69-9.55h.9l2.47,6.5a20,20,0,0,1,.74,2.18h.05q.36-1.2.74-2.2l2.47-6.48h.9L984.66,163Z" transform="translate(-1.5)"/><path class="cls-7" d="M993.81,163.18a4.17,4.17,0,0,1-3.25-1.28,5.16,5.16,0,0,1-1.16-3.59,5.61,5.61,0,0,1,1.13-3.66,3.72,3.72,0,0,1,3-1.37,3.27,3.27,0,0,1,2.66,1.18,4.86,4.86,0,0,1,1,3.2v.7h-6.88a4.52,4.52,0,0,0,.92,3,3.23,3.23,0,0,0,2.58,1,8,8,0,0,0,1.44-.11,8.75,8.75,0,0,0,1.57-.49v.79a7.06,7.06,0,0,1-1.49.48A8.38,8.38,0,0,1,993.81,163.18Zm-.25-9.14a2.86,2.86,0,0,0-2.21.91,4.29,4.29,0,0,0-1,2.62h5.91a4.17,4.17,0,0,0-.72-2.6A2.38,2.38,0,0,0,993.56,154Z" transform="translate(-1.5)"/><path class="cls-7" d="M1011.82,159.69a3.08,3.08,0,0,1-1.18,2.55,4.9,4.9,0,0,1-3.14.94,9.84,9.84,0,0,1-3.61-.52v-.9a9.14,9.14,0,0,0,3.54.59,4,4,0,0,0,2.51-.72,2.3,2.3,0,0,0,.93-1.9,2.19,2.19,0,0,0-.31-1.21,2.8,2.8,0,0,0-1-.87,12.36,12.36,0,0,0-2-.85,7,7,0,0,1-2.72-1.46,3.14,3.14,0,0,1,.38-4.45,4.49,4.49,0,0,1,2.91-.91,8.5,8.5,0,0,1,3.4.69l-.33.77a7.93,7.93,0,0,0-3.06-.67,3.59,3.59,0,0,0-2.27.66,2.15,2.15,0,0,0-.84,1.79,2.36,2.36,0,0,0,.26,1.17,2.38,2.38,0,0,0,.85.82,11.53,11.53,0,0,0,2,.88,11,11,0,0,1,2.26,1,3.26,3.26,0,0,1,1.1,1.11A3,3,0,0,1,1011.82,159.69Z" transform="translate(-1.5)"/><path class="cls-7" d="M1021.63,159.69a3.08,3.08,0,0,1-1.18,2.55,4.9,4.9,0,0,1-3.14.94,9.84,9.84,0,0,1-3.61-.52v-.9a9.14,9.14,0,0,0,3.54.59,4,4,0,0,0,2.51-.72,2.3,2.3,0,0,0,.93-1.9,2.19,2.19,0,0,0-.31-1.21,2.8,2.8,0,0,0-1-.87,12.36,12.36,0,0,0-2-.85,7,7,0,0,1-2.72-1.46,3.14,3.14,0,0,1,.38-4.45,4.49,4.49,0,0,1,2.91-.91,8.5,8.5,0,0,1,3.4.69l-.33.77a7.93,7.93,0,0,0-3.06-.67,3.59,3.59,0,0,0-2.27.66,2.15,2.15,0,0,0-.84,1.79,2.36,2.36,0,0,0,.26,1.17,2.38,2.38,0,0,0,.85.82,11.53,11.53,0,0,0,2,.88,11,11,0,0,1,2.26,1,3.26,3.26,0,0,1,1.1,1.11A3,3,0,0,1,1021.63,159.69Z" transform="translate(-1.5)"/><path class="cls-7" d="M1035.15,156.56a7.18,7.18,0,0,1-1.53,4.84,5.88,5.88,0,0,1-8.43,0,7.21,7.21,0,0,1-1.53-4.86,7.07,7.07,0,0,1,1.54-4.83,5.9,5.9,0,0,1,8.42,0A7.19,7.19,0,0,1,1035.15,156.56Zm-10.51,0a6.58,6.58,0,0,0,1.23,4.27,4.92,4.92,0,0,0,7.08,0,6.58,6.58,0,0,0,1.23-4.28,6.52,6.52,0,0,0-1.23-4.26,4.94,4.94,0,0,0-7.07,0A6.47,6.47,0,0,0,1024.64,156.56Z" transform="translate(-1.5)"/></g></svg>