<svg id="green" xmlns="http://www.w3.org/2000/svg" viewBox="0 0 530 500"><defs><style>.cls-1{fill:#46a0a8;}.cls-2{fill:#36403c;}</style></defs><title>topslidermarker3</title><polygon class="cls-1" points="0.5 499.5 0.5 0.5 199.5 0.5 199.5 55 64.5 55 64.5 446 199.5 446 199.5 499.5 0.5 499.5"/><path class="cls-2" d="M184,.5V54H49V446H184v52.5H-14V.5H184m1-1H-15v500H185V445H50V55H185V-.5Z" transform="translate(15 0.5)"/><polygon class="cls-1" points="330.5 499.5 330.5 445 465.5 445 465.5 54 330.5 54 330.5 0.5 529.5 0.5 529.5 499.5 330.5 499.5"/><path class="cls-2" d="M514,.5v498H316V445H451V53H316V.5H514m1-1H315V54H450V444H315v55.5H515V-.5Z" transform="translate(15 0.5)"/></svg>